<?xml version="1.0" ?>
<!-- Uploaded to: SVG Repo, www.svgrepo.com, Generator: SVG Repo Mixer Tools -->
<svg fill="#000000" width="800px" height="800px" viewBox="0 0 32 32" xmlns="http://www.w3.org/2000/svg">
<title/>
<g data-name="Layer 3" id="Layer_3">
<path d="M23.07,8.94a10,10,0,0,0-2.13-1.63A1.07,1.07,0,0,0,21,7V5a3,3,0,0,0-3-3H14a3,3,0,0,0-3,3V7a.9.9,0,0,0,.09.4A10.85,10.85,0,0,0,6,15.91S6,16,6,16s0,0,0,.05,0,.15,0,.22v5.48L4.87,22.9h0L3.11,24.68a2.94,2.94,0,0,0-.86,2.13,2.9,2.9,0,0,0,.89,2.1,3,3,0,0,0,2.1.86A3,3,0,0,0,7.3,29,4,4,0,0,0,10,30H22a4,4,0,0,0,4-4V16A9.89,9.89,0,0,0,23.07,8.94ZM8,22.52a1,1,0,0,1,1.42,0,.89.89,0,0,1,.28.53.08.08,0,0,1,0,0s0,.06,0,.09a1.07,1.07,0,0,1-.29.69L8.39,25,7,23.59Zm3.72.67v0c0-.06,0-.11,0-.17a3.32,3.32,0,0,0-.06-.44,2.8,2.8,0,0,0-.13-.41A.58.58,0,0,0,11.5,22a3.09,3.09,0,0,0-1.14-1.37A2.93,2.93,0,0,0,8,20.29V17H24v7H11.64a3,3,0,0,0,.12-.78ZM13,5a1,1,0,0,1,1-1h4a1,1,0,0,1,1,1V6H13Zm1.77,3.09A8,8,0,0,1,23.93,15H8.12A8.49,8.49,0,0,1,14.77,8.09ZM4.54,27.48a1,1,0,0,1-.3-.69,1,1,0,0,1,.29-.71L5.59,25,7,26.39l-.33.34a.7.7,0,0,0-.13.17L6,27.48A1,1,0,0,1,4.54,27.48ZM22,28H10a2,2,0,0,1-1.29-.47l.42-.43h0L10.22,26H24A2,2,0,0,1,22,28Z"/>
</g>
</svg>